<mxfile host="app.diagrams.net" modified="2020-06-23T02:27:46.918Z" agent="5.0 (Windows NT 10.0; Win64; x64) AppleWebKit/537.36 (KHTML, like Gecko) Chrome/83.0.4103.106 Safari/537.36" etag="EyfJWdzCED5PtVX-YRWx" version="13.3.0" type="github">
  <diagram name="Page-1" id="13e1069c-82ec-6db2-03f1-153e76fe0fe0">
    <mxGraphModel dx="1460" dy="600" grid="1" gridSize="10" guides="1" tooltips="1" connect="1" arrows="1" fold="1" page="1" pageScale="1" pageWidth="1100" pageHeight="850" background="#ffffff" math="0" shadow="0">
      <root>
        <mxCell id="0" />
        <mxCell id="1" parent="0" />
        <mxCell id="7baba1c4bc27f4b0-2" value="APP端" style="shape=umlLifeline;perimeter=lifelinePerimeter;whiteSpace=wrap;html=1;container=1;collapsible=0;recursiveResize=0;outlineConnect=0;rounded=1;shadow=0;comic=0;labelBackgroundColor=none;strokeWidth=1;fontFamily=Verdana;fontSize=12;align=center;" parent="1" vertex="1">
          <mxGeometry x="230" y="80" width="100" height="890" as="geometry" />
        </mxCell>
        <mxCell id="7baba1c4bc27f4b0-10" value="" style="html=1;points=[];perimeter=orthogonalPerimeter;rounded=0;shadow=0;comic=0;labelBackgroundColor=none;strokeWidth=1;fontFamily=Verdana;fontSize=12;align=center;" parent="7baba1c4bc27f4b0-2" vertex="1">
          <mxGeometry x="45" y="100" width="10" height="160" as="geometry" />
        </mxCell>
        <mxCell id="7baba1c4bc27f4b0-13" value="" style="html=1;points=[];perimeter=orthogonalPerimeter;rounded=0;shadow=0;comic=0;labelBackgroundColor=none;strokeWidth=1;fontFamily=Verdana;fontSize=12;align=center;" parent="7baba1c4bc27f4b0-2" vertex="1">
          <mxGeometry x="45" y="490" width="10" height="150" as="geometry" />
        </mxCell>
        <mxCell id="W3pWLk3RPvEbrVB4UAQq-24" value="" style="html=1;points=[];perimeter=orthogonalPerimeter;rounded=0;shadow=0;comic=0;labelBackgroundColor=none;strokeWidth=1;fontFamily=Verdana;fontSize=12;align=center;" vertex="1" parent="7baba1c4bc27f4b0-2">
          <mxGeometry x="45" y="770" width="10" height="105" as="geometry" />
        </mxCell>
        <mxCell id="7baba1c4bc27f4b0-3" value="招商服务端" style="shape=umlLifeline;perimeter=lifelinePerimeter;whiteSpace=wrap;html=1;container=1;collapsible=0;recursiveResize=0;outlineConnect=0;rounded=1;shadow=0;comic=0;labelBackgroundColor=none;strokeWidth=1;fontFamily=Verdana;fontSize=12;align=center;" parent="1" vertex="1">
          <mxGeometry x="420" y="80" width="100" height="890" as="geometry" />
        </mxCell>
        <mxCell id="7baba1c4bc27f4b0-16" value="" style="html=1;points=[];perimeter=orthogonalPerimeter;rounded=0;shadow=0;comic=0;labelBackgroundColor=none;strokeWidth=1;fontFamily=Verdana;fontSize=12;align=center;" parent="7baba1c4bc27f4b0-3" vertex="1">
          <mxGeometry x="45" y="220" width="10" height="210" as="geometry" />
        </mxCell>
        <mxCell id="W3pWLk3RPvEbrVB4UAQq-19" value="" style="html=1;points=[];perimeter=orthogonalPerimeter;rounded=0;shadow=0;comic=0;labelBackgroundColor=none;strokeWidth=1;fontFamily=Verdana;fontSize=12;align=center;" vertex="1" parent="7baba1c4bc27f4b0-3">
          <mxGeometry x="45" y="470" width="10" height="390" as="geometry" />
        </mxCell>
        <mxCell id="W3pWLk3RPvEbrVB4UAQq-53" value="数据存储&lt;br&gt;token&lt;br&gt;提问&lt;br&gt;答案&lt;br&gt;..." style="edgeStyle=orthogonalEdgeStyle;html=1;align=left;spacingLeft=2;endArrow=block;rounded=0;entryX=1.214;entryY=0.957;entryDx=0;entryDy=0;entryPerimeter=0;" edge="1" target="W3pWLk3RPvEbrVB4UAQq-19" parent="7baba1c4bc27f4b0-3" source="W3pWLk3RPvEbrVB4UAQq-19">
          <mxGeometry x="0.3877" y="25" relative="1" as="geometry">
            <mxPoint x="60" y="820" as="sourcePoint" />
            <Array as="points">
              <mxPoint x="85" y="810" />
              <mxPoint x="85" y="843" />
            </Array>
            <mxPoint x="65" y="840" as="targetPoint" />
            <mxPoint x="25" y="-25" as="offset" />
          </mxGeometry>
        </mxCell>
        <mxCell id="7baba1c4bc27f4b0-4" value="上交所授权服务" style="shape=umlLifeline;perimeter=lifelinePerimeter;whiteSpace=wrap;html=1;container=1;collapsible=0;recursiveResize=0;outlineConnect=0;rounded=1;shadow=0;comic=0;labelBackgroundColor=none;strokeWidth=1;fontFamily=Verdana;fontSize=12;align=center;" parent="1" vertex="1">
          <mxGeometry x="660" y="80" width="100" height="890" as="geometry" />
        </mxCell>
        <mxCell id="W3pWLk3RPvEbrVB4UAQq-12" value="" style="html=1;points=[];perimeter=orthogonalPerimeter;rounded=0;shadow=0;comic=0;labelBackgroundColor=none;strokeWidth=1;fontFamily=Verdana;fontSize=12;align=center;" vertex="1" parent="7baba1c4bc27f4b0-4">
          <mxGeometry x="45" y="100" width="10" height="100" as="geometry" />
        </mxCell>
        <mxCell id="W3pWLk3RPvEbrVB4UAQq-13" value="" style="html=1;points=[];perimeter=orthogonalPerimeter;rounded=0;shadow=0;comic=0;labelBackgroundColor=none;strokeWidth=1;fontFamily=Verdana;fontSize=12;align=center;" vertex="1" parent="7baba1c4bc27f4b0-4">
          <mxGeometry x="45" y="270" width="10" height="150" as="geometry" />
        </mxCell>
        <mxCell id="7baba1c4bc27f4b0-5" value="上交所资源服务" style="shape=umlLifeline;perimeter=lifelinePerimeter;whiteSpace=wrap;html=1;container=1;collapsible=0;recursiveResize=0;outlineConnect=0;rounded=1;shadow=0;comic=0;labelBackgroundColor=none;strokeWidth=1;fontFamily=Verdana;fontSize=12;align=center;" parent="1" vertex="1">
          <mxGeometry x="850" y="80" width="100" height="890" as="geometry" />
        </mxCell>
        <mxCell id="W3pWLk3RPvEbrVB4UAQq-20" value="" style="html=1;points=[];perimeter=orthogonalPerimeter;rounded=0;shadow=0;comic=0;labelBackgroundColor=none;strokeWidth=1;fontFamily=Verdana;fontSize=12;align=center;" vertex="1" parent="7baba1c4bc27f4b0-5">
          <mxGeometry x="45" y="680" width="10" height="100" as="geometry" />
        </mxCell>
        <mxCell id="W3pWLk3RPvEbrVB4UAQq-54" value="" style="html=1;points=[];perimeter=orthogonalPerimeter;" vertex="1" parent="7baba1c4bc27f4b0-5">
          <mxGeometry x="45" y="530" width="10" height="80" as="geometry" />
        </mxCell>
        <mxCell id="7baba1c4bc27f4b0-8" value="客户" style="shape=umlLifeline;perimeter=lifelinePerimeter;whiteSpace=wrap;html=1;container=1;collapsible=0;recursiveResize=0;outlineConnect=0;rounded=1;shadow=0;comic=0;labelBackgroundColor=none;strokeWidth=1;fontFamily=Verdana;fontSize=12;align=center;" parent="1" vertex="1">
          <mxGeometry x="60" y="80" width="100" height="890" as="geometry" />
        </mxCell>
        <mxCell id="7baba1c4bc27f4b0-9" value="" style="html=1;points=[];perimeter=orthogonalPerimeter;rounded=0;shadow=0;comic=0;labelBackgroundColor=none;strokeWidth=1;fontFamily=Verdana;fontSize=12;align=center;" parent="7baba1c4bc27f4b0-8" vertex="1">
          <mxGeometry x="45" y="100" width="10" height="770" as="geometry" />
        </mxCell>
        <mxCell id="W3pWLk3RPvEbrVB4UAQq-2" value="2.导向授权页面，指定重定向url" style="html=1;verticalAlign=bottom;endArrow=block;labelBackgroundColor=none;fontFamily=Verdana;fontSize=12;" edge="1" parent="1" source="7baba1c4bc27f4b0-10" target="W3pWLk3RPvEbrVB4UAQq-12">
          <mxGeometry x="-0.0135" y="1" relative="1" as="geometry">
            <mxPoint x="310" y="229" as="sourcePoint" />
            <mxPoint x="470" y="229" as="targetPoint" />
            <Array as="points">
              <mxPoint x="370" y="220" />
            </Array>
            <mxPoint as="offset" />
          </mxGeometry>
        </mxCell>
        <mxCell id="W3pWLk3RPvEbrVB4UAQq-5" value="3.返回授权码code，重定向到url" style="html=1;verticalAlign=bottom;endArrow=open;dashed=1;endSize=8;exitX=1.167;exitY=0.947;exitDx=0;exitDy=0;exitPerimeter=0;entryX=0.967;entryY=0.592;entryDx=0;entryDy=0;entryPerimeter=0;" edge="1" parent="1" source="W3pWLk3RPvEbrVB4UAQq-12" target="7baba1c4bc27f4b0-10">
          <mxGeometry relative="1" as="geometry">
            <mxPoint x="680" y="271" as="sourcePoint" />
            <mxPoint x="290" y="275" as="targetPoint" />
            <Array as="points" />
          </mxGeometry>
        </mxCell>
        <mxCell id="W3pWLk3RPvEbrVB4UAQq-9" value="4.重定向url + code" style="html=1;verticalAlign=bottom;endArrow=block;labelBackgroundColor=none;fontFamily=Verdana;fontSize=12;exitX=0.9;exitY=0.954;exitDx=0;exitDy=0;exitPerimeter=0;" edge="1" parent="1" source="7baba1c4bc27f4b0-10" target="7baba1c4bc27f4b0-16">
          <mxGeometry relative="1" as="geometry">
            <mxPoint x="320" y="330" as="sourcePoint" />
            <mxPoint x="500" y="333" as="targetPoint" />
          </mxGeometry>
        </mxCell>
        <mxCell id="W3pWLk3RPvEbrVB4UAQq-1" value="1.访问APP" style="html=1;verticalAlign=bottom;endArrow=block;labelBackgroundColor=none;fontFamily=Verdana;fontSize=12;exitX=-0.033;exitY=0.041;exitDx=0;exitDy=0;exitPerimeter=0;" edge="1" parent="1" source="7baba1c4bc27f4b0-9" target="7baba1c4bc27f4b0-10">
          <mxGeometry relative="1" as="geometry">
            <mxPoint x="130" y="200" as="sourcePoint" />
            <mxPoint x="250" y="198" as="targetPoint" />
          </mxGeometry>
        </mxCell>
        <mxCell id="W3pWLk3RPvEbrVB4UAQq-11" value="5.重定向url + code申请令牌" style="html=1;verticalAlign=bottom;endArrow=block;labelBackgroundColor=none;fontFamily=Verdana;fontSize=12;exitX=1.233;exitY=0.385;exitDx=0;exitDy=0;exitPerimeter=0;" edge="1" parent="1" source="7baba1c4bc27f4b0-16" target="W3pWLk3RPvEbrVB4UAQq-13">
          <mxGeometry relative="1" as="geometry">
            <mxPoint x="490" y="370" as="sourcePoint" />
            <mxPoint x="690" y="369" as="targetPoint" />
          </mxGeometry>
        </mxCell>
        <mxCell id="W3pWLk3RPvEbrVB4UAQq-14" value="6.返回令牌 access_token" style="html=1;verticalAlign=bottom;endArrow=open;dashed=1;endSize=8;entryX=1.024;entryY=0.564;entryDx=0;entryDy=0;entryPerimeter=0;" edge="1" parent="1" source="W3pWLk3RPvEbrVB4UAQq-13" target="7baba1c4bc27f4b0-16">
          <mxGeometry relative="1" as="geometry">
            <mxPoint x="690" y="410" as="sourcePoint" />
            <mxPoint x="500" y="420" as="targetPoint" />
            <Array as="points" />
          </mxGeometry>
        </mxCell>
        <mxCell id="W3pWLk3RPvEbrVB4UAQq-17" value="8.提问" style="html=1;verticalAlign=bottom;endArrow=block;labelBackgroundColor=none;fontFamily=Verdana;fontSize=12;entryX=-0.024;entryY=0.128;entryDx=0;entryDy=0;entryPerimeter=0;" edge="1" parent="1" source="7baba1c4bc27f4b0-13" target="W3pWLk3RPvEbrVB4UAQq-19">
          <mxGeometry relative="1" as="geometry">
            <mxPoint x="294" y="540" as="sourcePoint" />
            <mxPoint x="690" y="540" as="targetPoint" />
            <Array as="points" />
          </mxGeometry>
        </mxCell>
        <mxCell id="W3pWLk3RPvEbrVB4UAQq-18" value="11.返回结果" style="html=1;verticalAlign=bottom;endArrow=open;dashed=1;endSize=8;" edge="1" parent="1" source="W3pWLk3RPvEbrVB4UAQq-19" target="7baba1c4bc27f4b0-13">
          <mxGeometry relative="1" as="geometry">
            <mxPoint x="450" y="640" as="sourcePoint" />
            <mxPoint x="300" y="590" as="targetPoint" />
            <Array as="points">
              <mxPoint x="430" y="700" />
            </Array>
          </mxGeometry>
        </mxCell>
        <mxCell id="W3pWLk3RPvEbrVB4UAQq-21" value="" style="edgeStyle=orthogonalEdgeStyle;rounded=0;orthogonalLoop=1;jettySize=auto;html=1;" edge="1" parent="1" source="W3pWLk3RPvEbrVB4UAQq-19" target="W3pWLk3RPvEbrVB4UAQq-20">
          <mxGeometry relative="1" as="geometry">
            <mxPoint x="510" y="660" as="sourcePoint" />
            <Array as="points">
              <mxPoint x="810" y="800" />
              <mxPoint x="810" y="800" />
            </Array>
          </mxGeometry>
        </mxCell>
        <mxCell id="W3pWLk3RPvEbrVB4UAQq-22" value="12.轮询获取答案" style="edgeLabel;html=1;align=center;verticalAlign=middle;resizable=0;points=[];" vertex="1" connectable="0" parent="W3pWLk3RPvEbrVB4UAQq-21">
          <mxGeometry x="0.0986" relative="1" as="geometry">
            <mxPoint x="-11" y="-10" as="offset" />
          </mxGeometry>
        </mxCell>
        <mxCell id="W3pWLk3RPvEbrVB4UAQq-23" value="13.返回结果" style="html=1;verticalAlign=bottom;endArrow=open;dashed=1;endSize=8;" edge="1" parent="1" source="W3pWLk3RPvEbrVB4UAQq-20" target="7baba1c4bc27f4b0-3">
          <mxGeometry relative="1" as="geometry">
            <mxPoint x="700" y="730" as="sourcePoint" />
            <mxPoint x="280" y="730" as="targetPoint" />
            <Array as="points">
              <mxPoint x="810" y="840" />
            </Array>
          </mxGeometry>
        </mxCell>
        <mxCell id="W3pWLk3RPvEbrVB4UAQq-27" value="15.展示结果" style="html=1;verticalAlign=bottom;endArrow=open;dashed=1;endSize=8;entryX=1.024;entryY=0.947;entryDx=0;entryDy=0;entryPerimeter=0;" edge="1" parent="1" source="W3pWLk3RPvEbrVB4UAQq-24" target="7baba1c4bc27f4b0-9">
          <mxGeometry relative="1" as="geometry">
            <mxPoint x="459.66999999999996" y="750.0000000000001" as="sourcePoint" />
            <mxPoint x="140" y="749" as="targetPoint" />
            <Array as="points">
              <mxPoint x="190" y="910" />
            </Array>
          </mxGeometry>
        </mxCell>
        <mxCell id="W3pWLk3RPvEbrVB4UAQq-28" value="14.消息推送" style="html=1;verticalAlign=bottom;endArrow=open;dashed=1;endSize=8;exitX=0.167;exitY=0.84;exitDx=0;exitDy=0;exitPerimeter=0;" edge="1" parent="1" source="W3pWLk3RPvEbrVB4UAQq-19">
          <mxGeometry relative="1" as="geometry">
            <mxPoint x="459.6700000000001" y="750" as="sourcePoint" />
            <mxPoint x="288" y="880" as="targetPoint" />
            <Array as="points" />
          </mxGeometry>
        </mxCell>
        <mxCell id="W3pWLk3RPvEbrVB4UAQq-32" value="7.1 刷新令牌 refresh_token" style="html=1;verticalAlign=bottom;endArrow=block;labelBackgroundColor=none;fontFamily=Verdana;fontSize=12;" edge="1" parent="1" target="W3pWLk3RPvEbrVB4UAQq-13">
          <mxGeometry relative="1" as="geometry">
            <mxPoint x="474" y="450" as="sourcePoint" />
            <mxPoint x="700" y="449.78" as="targetPoint" />
            <Array as="points" />
          </mxGeometry>
        </mxCell>
        <mxCell id="W3pWLk3RPvEbrVB4UAQq-33" value="7..2返回令牌refresh_token" style="html=1;verticalAlign=bottom;endArrow=open;dashed=1;endSize=8;entryX=1.024;entryY=0.564;entryDx=0;entryDy=0;entryPerimeter=0;" edge="1" parent="1" source="W3pWLk3RPvEbrVB4UAQq-13">
          <mxGeometry relative="1" as="geometry">
            <mxPoint x="690" y="490" as="sourcePoint" />
            <mxPoint x="480" y="490.00000000000006" as="targetPoint" />
            <Array as="points" />
          </mxGeometry>
        </mxCell>
        <mxCell id="W3pWLk3RPvEbrVB4UAQq-42" value="9.提问+access_token" style="html=1;verticalAlign=bottom;endArrow=block;labelBackgroundColor=none;fontFamily=Verdana;fontSize=12;exitX=1.5;exitY=0.194;exitDx=0;exitDy=0;exitPerimeter=0;" edge="1" parent="1" source="W3pWLk3RPvEbrVB4UAQq-19" target="7baba1c4bc27f4b0-5">
          <mxGeometry relative="1" as="geometry">
            <mxPoint x="490" y="610" as="sourcePoint" />
            <mxPoint x="660.0000000000002" y="610.0000000000001" as="targetPoint" />
            <Array as="points" />
          </mxGeometry>
        </mxCell>
        <mxCell id="W3pWLk3RPvEbrVB4UAQq-44" value="10.返回结果" style="html=1;verticalAlign=bottom;endArrow=open;dashed=1;endSize=8;exitX=0.119;exitY=0.75;exitDx=0;exitDy=0;exitPerimeter=0;" edge="1" parent="1" source="W3pWLk3RPvEbrVB4UAQq-54" target="W3pWLk3RPvEbrVB4UAQq-19">
          <mxGeometry relative="1" as="geometry">
            <mxPoint x="705" y="670" as="sourcePoint" />
            <mxPoint x="476.21000000000026" y="640.4000000000001" as="targetPoint" />
            <Array as="points">
              <mxPoint x="650" y="670" />
            </Array>
          </mxGeometry>
        </mxCell>
      </root>
    </mxGraphModel>
  </diagram>
</mxfile>
